<?xml version="1.0" encoding="UTF-8" standalone="no"?>
<!DOCTYPE svg PUBLIC "-//W3C//DTD SVG 1.1//EN" "http://www.w3.org/Graphics/SVG/1.1/DTD/svg11.dtd">
<svg width="100%" height="100%" viewBox="0 0 1182 1182" version="1.1" xmlns="http://www.w3.org/2000/svg" xmlns:xlink="http://www.w3.org/1999/xlink" xml:space="preserve" xmlns:serif="http://www.serif.com/" style="fill-rule:evenodd;clip-rule:evenodd;stroke-linecap:round;stroke-linejoin:round;stroke-miterlimit:1.5;">
    <g transform="matrix(1,0,0,1,-2403.84,-249.413)">
        <path d="M3014.51,1017.13L3014.51,662.799L3368.85,662.799L3368.85,697.051L3118.45,697.051L3118.45,1017.13L3014.51,1017.13Z" style="fill:none;stroke:black;stroke-width:2.08px;"/>
    </g>
    <g transform="matrix(-1,1.22465e-16,-1.22465e-16,-1,4116.32,1430.52)">
        <path d="M3014.51,1017.13L3014.51,662.799L3368.85,662.799L3368.85,697.051L3118.45,697.051L3118.45,1017.13L3014.51,1017.13Z" style="fill:none;stroke:black;stroke-width:2.08px;"/>
    </g>
    <g transform="matrix(-1.83697e-16,1,-1,-1.83697e-16,1225.56,-2172.99)">
        <path d="M2586.37,1017.13L2586.37,662.799L2940.7,662.799L2940.7,767.917L2690.31,767.917L2690.31,1017.13L2586.37,1017.13" style="fill:none;stroke:black;stroke-width:2.08px;"/>
    </g>
    <g transform="matrix(6.12323e-17,-1,1,6.12323e-17,-583.502,3354.09)">
        <path d="M2586.37,1017.13L2586.37,662.799L2940.7,662.799L2940.7,767.917L2690.31,767.917L2690.31,1017.13L2586.37,1017.13" style="fill:none;stroke:black;stroke-width:2.08px;"/>
    </g>
</svg>
