<?xml version="1.0" encoding="UTF-8" standalone="no"?>
<!DOCTYPE svg PUBLIC "-//W3C//DTD SVG 1.1//EN" "http://www.w3.org/Graphics/SVG/1.1/DTD/svg11.dtd">
<svg width="100%" height="100%" viewBox="0 0 3662 3662" version="1.1" xmlns="http://www.w3.org/2000/svg" xmlns:xlink="http://www.w3.org/1999/xlink" xml:space="preserve" xmlns:serif="http://www.serif.com/" style="fill-rule:evenodd;clip-rule:evenodd;stroke-linecap:round;stroke-linejoin:round;">
    <g transform="matrix(-4.16667,-5.10269e-16,5.10269e-16,-4.16667,3271.88,3394.92)">
        <path d="M28.488,803.055L56.835,803.055C56.914,803.055 56.976,802.993 56.976,802.913L56.976,794.551C56.976,794.409 56.835,794.551 56.976,794.551L73.701,794.551C73.843,794.551 73.701,794.409 73.701,794.551L73.701,802.913C73.701,802.993 73.763,803.055 73.843,803.055L90.85,803.055C90.93,803.055 90.992,802.993 90.992,802.913L90.992,794.551C90.992,794.409 90.85,794.551 90.992,794.551L107.717,794.551C107.858,794.551 107.717,794.409 107.717,794.551L107.717,802.913C107.717,802.993 107.779,803.055 107.858,803.055L124.866,803.055C124.946,803.055 125.008,802.993 125.008,802.913L125.008,794.551C125.008,794.409 124.866,794.551 125.008,794.551L141.732,794.551C141.874,794.551 141.732,794.409 141.732,794.551L141.732,802.913C141.732,802.993 141.795,803.055 141.874,803.055L158.882,803.055C158.961,803.055 159.024,802.993 159.024,802.913L159.024,794.551C159.024,794.409 158.882,794.551 159.024,794.551L175.748,794.551C175.89,794.551 175.748,794.409 175.748,794.551L175.748,802.913C175.748,802.993 175.81,803.055 175.89,803.055L192.898,803.055C192.977,803.055 193.039,802.993 193.039,802.913L193.039,794.551C193.039,794.409 192.898,794.551 193.039,794.551L209.764,794.551C209.906,794.551 209.764,794.409 209.764,794.551L209.764,802.913C209.764,802.993 209.826,803.055 209.906,803.055L226.913,803.055C226.993,803.055 227.055,802.993 227.055,802.913L227.055,794.551C227.055,794.409 226.913,794.551 227.055,794.551L243.78,794.551C243.921,794.551 243.78,794.409 243.78,794.551L243.78,802.913C243.78,802.993 243.842,803.055 243.921,803.055L260.929,803.055C261.009,803.055 261.071,802.993 261.071,802.913L261.071,794.551C261.071,794.409 260.929,794.551 261.071,794.551L277.795,794.551C277.937,794.551 277.795,794.409 277.795,794.551L277.795,802.913C277.795,802.993 277.858,803.055 277.937,803.055L294.945,803.055C295.024,803.055 295.087,802.993 295.087,802.913L295.087,794.551C295.087,794.409 294.945,794.551 295.087,794.551L311.811,794.551C311.953,794.551 311.811,794.409 311.811,794.551L311.811,802.913C311.811,802.993 311.873,803.055 311.953,803.055L328.961,803.055C329.04,803.055 329.102,802.993 329.102,802.913L329.102,794.551C329.102,794.409 328.961,794.551 329.102,794.551L345.827,794.551C345.969,794.551 345.827,794.409 345.827,794.551L345.827,802.913C345.827,802.993 345.889,803.055 345.969,803.055L362.976,803.055C363.056,803.055 363.118,802.993 363.118,802.913L363.118,794.551C363.118,794.409 362.976,794.551 363.118,794.551L379.843,794.551C379.984,794.551 379.843,794.409 379.843,794.551L379.843,802.913C379.843,802.993 379.905,803.055 379.984,803.055L396.992,803.055C397.071,803.055 397.134,802.993 397.134,802.913L397.134,794.551C397.134,794.409 396.992,794.551 397.134,794.551L413.858,794.551C414,794.551 413.858,794.409 413.858,794.551L413.858,802.913C413.858,802.993 413.921,803.055 414,803.055L431.008,803.055C431.087,803.055 431.15,802.993 431.15,802.913L431.15,794.551C431.15,794.409 431.008,794.551 431.15,794.551L447.874,794.551C448.016,794.551 447.874,794.409 447.874,794.551L447.874,802.913C447.874,802.993 447.936,803.055 448.016,803.055L465.024,803.055C465.103,803.055 465.165,802.993 465.165,802.913L465.165,794.551C465.165,794.409 465.024,794.551 465.165,794.551L481.89,794.551C482.031,794.551 481.89,794.409 481.89,794.551L481.89,802.913C481.89,802.993 481.952,803.055 482.031,803.055L499.039,803.055C499.119,803.055 499.181,802.993 499.181,802.913L499.181,794.551C499.181,794.409 499.039,794.551 499.181,794.551L515.906,794.551C516.047,794.551 515.906,794.409 515.906,794.551L515.906,802.913C515.906,802.993 515.968,803.055 516.047,803.055L533.055,803.055C533.134,803.055 533.197,802.993 533.197,802.913L533.197,794.551C533.197,794.409 533.055,794.551 533.197,794.551L549.921,794.551C550.063,794.551 549.921,794.409 549.921,794.551L549.921,802.913C549.921,802.993 549.984,803.055 550.063,803.055L578.409,803.055C578.489,803.055 578.551,802.993 578.551,802.913L578.551,780.236C578.551,780.157 578.489,780.094 578.409,780.094L570.047,780.094C569.906,780.094 570.047,780.236 570.047,780.094L570.047,763.37C570.047,763.228 569.906,763.37 570.047,763.37L578.409,763.37C578.489,763.37 578.551,763.308 578.551,763.228L578.551,746.22C578.551,746.141 578.489,746.079 578.409,746.079L570.047,746.079C569.906,746.079 570.047,746.22 570.047,746.079L570.047,729.354C570.047,729.213 569.906,729.354 570.047,729.354L578.409,729.354C578.489,729.354 578.551,729.292 578.551,729.213L578.551,712.205C578.551,712.125 578.489,712.063 578.409,712.063L570.047,712.063C569.906,712.063 570.047,712.205 570.047,712.063L570.047,695.339C570.047,695.197 569.906,695.339 570.047,695.339L578.409,695.339C578.489,695.339 578.551,695.276 578.551,695.197L578.551,678.189C578.551,678.11 578.489,678.047 578.409,678.047L570.047,678.047C569.906,678.047 570.047,678.189 570.047,678.047L570.047,661.323C570.047,661.181 569.906,661.323 570.047,661.323L578.409,661.323C578.489,661.323 578.551,661.26 578.551,661.181L578.551,644.173C578.551,644.094 578.489,644.031 578.409,644.031L570.047,644.031C569.906,644.031 570.047,644.173 570.047,644.031L570.047,627.307C570.047,627.165 569.906,627.307 570.047,627.307L578.409,627.307C578.489,627.307 578.551,627.245 578.551,627.165L578.551,604.488C578.551,604.409 578.489,604.346 578.409,604.346L28.488,604.346C28.409,604.346 28.346,604.409 28.346,604.488L28.346,627.165C28.346,627.245 28.409,627.307 28.488,627.307L36.85,627.307C36.992,627.307 36.85,627.165 36.85,627.307L36.85,644.031C36.85,644.173 36.992,644.031 36.85,644.031L28.488,644.031C28.409,644.031 28.346,644.094 28.346,644.173L28.346,661.181C28.346,661.26 28.409,661.323 28.488,661.323L36.85,661.323C36.992,661.323 36.85,661.181 36.85,661.323L36.85,678.047C36.85,678.189 36.992,678.047 36.85,678.047L28.488,678.047C28.409,678.047 28.346,678.11 28.346,678.189L28.346,695.197C28.346,695.276 28.409,695.339 28.488,695.339L36.85,695.339C36.992,695.339 36.85,695.197 36.85,695.339L36.85,712.063C36.85,712.205 36.992,712.063 36.85,712.063L28.488,712.063C28.409,712.063 28.346,712.125 28.346,712.205L28.346,729.213C28.346,729.292 28.409,729.354 28.488,729.354L36.85,729.354C36.992,729.354 36.85,729.213 36.85,729.354L36.85,746.079C36.85,746.22 36.992,746.079 36.85,746.079L28.488,746.079C28.409,746.079 28.346,746.141 28.346,746.22L28.346,763.228C28.346,763.308 28.409,763.37 28.488,763.37L36.85,763.37C36.992,763.37 36.85,763.228 36.85,763.37L36.85,780.094C36.85,780.236 36.992,780.094 36.85,780.094L28.488,780.094C28.409,780.094 28.346,780.157 28.346,780.236L28.346,802.913C28.346,802.993 28.409,803.055 28.488,803.055Z" style="fill:none;fill-rule:nonzero;stroke:black;stroke-width:0.5px;"/>
    </g>
    <g transform="matrix(-4.16667,-5.10269e-16,5.10269e-16,-4.16667,3271.88,3391.92)">
        <path d="M28.488,600.094L56.835,600.094C56.914,600.094 56.976,600.032 56.976,599.953L56.976,591.591C56.976,591.449 56.835,591.591 56.976,591.591L73.701,591.591C73.843,591.591 73.701,591.449 73.701,591.591L73.701,599.953C73.701,600.032 73.763,600.094 73.843,600.094L90.85,600.094C90.93,600.094 90.992,600.032 90.992,599.953L90.992,591.591C90.992,591.449 90.85,591.591 90.992,591.591L107.717,591.591C107.858,591.591 107.717,591.449 107.717,591.591L107.717,599.953C107.717,600.032 107.779,600.094 107.858,600.094L124.866,600.094C124.946,600.094 125.008,600.032 125.008,599.953L125.008,591.591C125.008,591.449 124.866,591.591 125.008,591.591L141.732,591.591C141.874,591.591 141.732,591.449 141.732,591.591L141.732,599.953C141.732,600.032 141.795,600.094 141.874,600.094L158.882,600.094C158.961,600.094 159.024,600.032 159.024,599.953L159.024,591.591C159.024,591.449 158.882,591.591 159.024,591.591L175.748,591.591C175.89,591.591 175.748,591.449 175.748,591.591L175.748,599.953C175.748,600.032 175.81,600.094 175.89,600.094L192.898,600.094C192.977,600.094 193.039,600.032 193.039,599.953L193.039,591.591C193.039,591.449 192.898,591.591 193.039,591.591L209.764,591.591C209.906,591.591 209.764,591.449 209.764,591.591L209.764,599.953C209.764,600.032 209.826,600.094 209.906,600.094L226.913,600.094C226.993,600.094 227.055,600.032 227.055,599.953L227.055,591.591C227.055,591.449 226.913,591.591 227.055,591.591L243.78,591.591C243.921,591.591 243.78,591.449 243.78,591.591L243.78,599.953C243.78,600.032 243.842,600.094 243.921,600.094L260.929,600.094C261.009,600.094 261.071,600.032 261.071,599.953L261.071,591.591C261.071,591.449 260.929,591.591 261.071,591.591L277.795,591.591C277.937,591.591 277.795,591.449 277.795,591.591L277.795,599.953C277.795,600.032 277.858,600.094 277.937,600.094L294.945,600.094C295.024,600.094 295.087,600.032 295.087,599.953L295.087,591.591C295.087,591.449 294.945,591.591 295.087,591.591L311.811,591.591C311.953,591.591 311.811,591.449 311.811,591.591L311.811,599.953C311.811,600.032 311.873,600.094 311.953,600.094L328.961,600.094C329.04,600.094 329.102,600.032 329.102,599.953L329.102,591.591C329.102,591.449 328.961,591.591 329.102,591.591L345.827,591.591C345.969,591.591 345.827,591.449 345.827,591.591L345.827,599.953C345.827,600.032 345.889,600.094 345.969,600.094L362.976,600.094C363.056,600.094 363.118,600.032 363.118,599.953L363.118,591.591C363.118,591.449 362.976,591.591 363.118,591.591L379.843,591.591C379.984,591.591 379.843,591.449 379.843,591.591L379.843,599.953C379.843,600.032 379.905,600.094 379.984,600.094L396.992,600.094C397.071,600.094 397.134,600.032 397.134,599.953L397.134,591.591C397.134,591.449 396.992,591.591 397.134,591.591L413.858,591.591C414,591.591 413.858,591.449 413.858,591.591L413.858,599.953C413.858,600.032 413.921,600.094 414,600.094L431.008,600.094C431.087,600.094 431.15,600.032 431.15,599.953L431.15,591.591C431.15,591.449 431.008,591.591 431.15,591.591L447.874,591.591C448.016,591.591 447.874,591.449 447.874,591.591L447.874,599.953C447.874,600.032 447.936,600.094 448.016,600.094L465.024,600.094C465.103,600.094 465.165,600.032 465.165,599.953L465.165,591.591C465.165,591.449 465.024,591.591 465.165,591.591L481.89,591.591C482.031,591.591 481.89,591.449 481.89,591.591L481.89,599.953C481.89,600.032 481.952,600.094 482.031,600.094L499.039,600.094C499.119,600.094 499.181,600.032 499.181,599.953L499.181,591.591C499.181,591.449 499.039,591.591 499.181,591.591L515.906,591.591C516.047,591.591 515.906,591.449 515.906,591.591L515.906,599.953C515.906,600.032 515.968,600.094 516.047,600.094L533.055,600.094C533.134,600.094 533.197,600.032 533.197,599.953L533.197,591.591C533.197,591.449 533.055,591.591 533.197,591.591L549.921,591.591C550.063,591.591 549.921,591.449 549.921,591.591L549.921,599.953C549.921,600.032 549.984,600.094 550.063,600.094L578.409,600.094C578.489,600.094 578.551,600.032 578.551,599.953L578.551,577.276C578.551,577.196 578.489,577.134 578.409,577.134L570.047,577.134C569.906,577.134 570.047,577.276 570.047,577.134L570.047,560.409C570.047,560.268 569.906,560.409 570.047,560.409L578.409,560.409C578.489,560.409 578.551,560.347 578.551,560.268L578.551,543.26C578.551,543.18 578.489,543.118 578.409,543.118L570.047,543.118C569.906,543.118 570.047,543.26 570.047,543.118L570.047,526.394C570.047,526.252 569.906,526.394 570.047,526.394L578.409,526.394C578.489,526.394 578.551,526.331 578.551,526.252L578.551,509.244C578.551,509.165 578.489,509.102 578.409,509.102L570.047,509.102C569.906,509.102 570.047,509.244 570.047,509.102L570.047,492.378C570.047,492.236 569.906,492.378 570.047,492.378L578.409,492.378C578.489,492.378 578.551,492.316 578.551,492.236L578.551,475.228C578.551,475.149 578.489,475.087 578.409,475.087L570.047,475.087C569.906,475.087 570.047,475.228 570.047,475.087L570.047,458.362C570.047,458.22 569.906,458.362 570.047,458.362L578.409,458.362C578.489,458.362 578.551,458.3 578.551,458.22L578.551,441.213C578.551,441.133 578.489,441.071 578.409,441.071L570.047,441.071C569.906,441.071 570.047,441.213 570.047,441.071L570.047,424.346C570.047,424.205 569.906,424.346 570.047,424.346L578.409,424.346C578.489,424.346 578.551,424.284 578.551,424.205L578.551,401.528C578.551,401.448 578.489,401.386 578.409,401.386L28.488,401.386C28.409,401.386 28.346,401.448 28.346,401.528L28.346,424.205C28.346,424.284 28.409,424.346 28.488,424.346L36.85,424.346C36.992,424.346 36.85,424.205 36.85,424.346L36.85,441.071C36.85,441.213 36.992,441.071 36.85,441.071L28.488,441.071C28.409,441.071 28.346,441.133 28.346,441.213L28.346,458.22C28.346,458.3 28.409,458.362 28.488,458.362L36.85,458.362C36.992,458.362 36.85,458.22 36.85,458.362L36.85,475.087C36.85,475.228 36.992,475.087 36.85,475.087L28.488,475.087C28.409,475.087 28.346,475.149 28.346,475.228L28.346,492.236C28.346,492.316 28.409,492.378 28.488,492.378L36.85,492.378C36.992,492.378 36.85,492.236 36.85,492.378L36.85,509.102C36.85,509.244 36.992,509.102 36.85,509.102L28.488,509.102C28.409,509.102 28.346,509.165 28.346,509.244L28.346,526.252C28.346,526.331 28.409,526.394 28.488,526.394L36.85,526.394C36.992,526.394 36.85,526.252 36.85,526.394L36.85,543.118C36.85,543.26 36.992,543.118 36.85,543.118L28.488,543.118C28.409,543.118 28.346,543.18 28.346,543.26L28.346,560.268C28.346,560.347 28.409,560.409 28.488,560.409L36.85,560.409C36.992,560.409 36.85,560.268 36.85,560.409L36.85,577.134C36.85,577.276 36.992,577.134 36.85,577.134L28.488,577.134C28.409,577.134 28.346,577.196 28.346,577.276L28.346,599.953C28.346,600.032 28.409,600.094 28.488,600.094Z" style="fill:none;fill-rule:nonzero;stroke:black;stroke-width:0.5px;"/>
    </g>
    <g transform="matrix(-4.16667,-5.10269e-16,5.10269e-16,-4.16667,3291.12,3389.2)">
        <path d="M36.992,388.63L56.693,388.63C56.835,388.63 56.693,388.488 56.693,388.63L56.693,396.992C56.693,397.071 56.755,397.134 56.835,397.134L73.843,397.134C73.922,397.134 73.984,397.071 73.984,396.992L73.984,388.63C73.984,388.488 73.843,388.63 73.984,388.63L90.709,388.63C90.85,388.63 90.709,388.488 90.709,388.63L90.709,396.992C90.709,397.071 90.771,397.134 90.85,397.134L107.858,397.134C107.938,397.134 108,397.071 108,396.992L108,388.63C108,388.488 107.858,388.63 108,388.63L124.724,388.63C124.866,388.63 124.724,388.488 124.724,388.63L124.724,396.992C124.724,397.071 124.787,397.134 124.866,397.134L141.874,397.134C141.953,397.134 142.016,397.071 142.016,396.992L142.016,388.63C142.016,388.488 141.874,388.63 142.016,388.63L158.74,388.63C158.882,388.63 158.74,388.488 158.74,388.63L158.74,396.992C158.74,397.071 158.803,397.134 158.882,397.134L175.89,397.134C175.969,397.134 176.031,397.071 176.031,396.992L176.031,388.63C176.031,388.488 175.89,388.63 176.031,388.63L192.756,388.63C192.898,388.63 192.756,388.488 192.756,388.63L192.756,396.992C192.756,397.071 192.818,397.134 192.898,397.134L209.906,397.134C209.985,397.134 210.047,397.071 210.047,396.992L210.047,388.63C210.047,388.488 209.906,388.63 210.047,388.63L226.772,388.63C226.913,388.63 226.772,388.488 226.772,388.63L226.772,396.992C226.772,397.071 226.834,397.134 226.913,397.134L243.921,397.134C244.001,397.134 244.063,397.071 244.063,396.992L244.063,388.63C244.063,388.488 243.921,388.63 244.063,388.63L260.787,388.63C260.929,388.63 260.787,388.488 260.787,388.63L260.787,396.992C260.787,397.071 260.85,397.134 260.929,397.134L277.937,397.134C278.016,397.134 278.079,397.071 278.079,396.992L278.079,388.63C278.079,388.488 277.937,388.63 278.079,388.63L294.803,388.63C294.945,388.63 294.803,388.488 294.803,388.63L294.803,396.992C294.803,397.071 294.866,397.134 294.945,397.134L311.953,397.134C312.032,397.134 312.094,397.071 312.094,396.992L312.094,388.63C312.094,388.488 311.953,388.63 312.094,388.63L328.819,388.63C328.961,388.63 328.819,388.488 328.819,388.63L328.819,396.992C328.819,397.071 328.881,397.134 328.961,397.134L345.969,397.134C346.048,397.134 346.11,397.071 346.11,396.992L346.11,388.63C346.11,388.488 345.969,388.63 346.11,388.63L362.835,388.63C362.976,388.63 362.835,388.488 362.835,388.63L362.835,396.992C362.835,397.071 362.897,397.134 362.976,397.134L379.984,397.134C380.064,397.134 380.126,397.071 380.126,396.992L380.126,388.63C380.126,388.488 379.984,388.63 380.126,388.63L396.85,388.63C396.992,388.63 396.85,388.488 396.85,388.63L396.85,396.992C396.85,397.071 396.913,397.134 396.992,397.134L414,397.134C414.079,397.134 414.142,397.071 414.142,396.992L414.142,388.63C414.142,388.488 414,388.63 414.142,388.63L430.866,388.63C431.008,388.63 430.866,388.488 430.866,388.63L430.866,396.992C430.866,397.071 430.929,397.134 431.008,397.134L448.016,397.134C448.095,397.134 448.157,397.071 448.157,396.992L448.157,388.63C448.157,388.488 448.016,388.63 448.157,388.63L464.882,388.63C465.024,388.63 464.882,388.488 464.882,388.63L464.882,396.992C464.882,397.071 464.944,397.134 465.024,397.134L482.031,397.134C482.111,397.134 482.173,397.071 482.173,396.992L482.173,388.63C482.173,388.488 482.031,388.63 482.173,388.63L498.898,388.63C499.039,388.63 498.898,388.488 498.898,388.63L498.898,396.992C498.898,397.071 498.96,397.134 499.039,397.134L516.047,397.134C516.127,397.134 516.189,397.071 516.189,396.992L516.189,388.63C516.189,388.488 516.047,388.63 516.189,388.63L532.913,388.63C533.055,388.63 532.913,388.488 532.913,388.63L532.913,396.992C532.913,397.071 532.976,397.134 533.055,397.134L550.063,397.134C550.142,397.134 550.205,397.071 550.205,396.992L550.205,388.63C550.205,388.488 550.063,388.63 550.205,388.63L569.906,388.63C569.985,388.63 570.047,388.568 570.047,388.488L570.047,357.449C570.047,357.307 569.906,357.449 570.047,357.449L578.409,357.449C578.489,357.449 578.551,357.386 578.551,357.307L578.551,340.299C578.551,340.22 578.489,340.157 578.409,340.157L570.047,340.157C569.906,340.157 570.047,340.299 570.047,340.157L570.047,323.433C570.047,323.291 569.906,323.433 570.047,323.433L578.409,323.433C578.489,323.433 578.551,323.371 578.551,323.291L578.551,306.283C578.551,306.204 578.489,306.142 578.409,306.142L570.047,306.142C569.906,306.142 570.047,306.283 570.047,306.142L570.047,289.417C570.047,289.276 569.906,289.417 570.047,289.417L578.409,289.417C578.489,289.417 578.551,289.355 578.551,289.276L578.551,272.268C578.551,272.188 578.489,272.126 578.409,272.126L570.047,272.126C569.906,272.126 570.047,272.268 570.047,272.126L570.047,255.402C570.047,255.26 569.906,255.402 570.047,255.402L578.409,255.402C578.489,255.402 578.551,255.339 578.551,255.26L578.551,238.252C578.551,238.173 578.489,238.11 578.409,238.11L570.047,238.11C569.906,238.11 570.047,238.252 570.047,238.11L570.047,221.386C570.047,221.244 569.906,221.386 570.047,221.386L578.409,221.386C578.489,221.386 578.551,221.323 578.551,221.244L578.551,204.236C578.551,204.157 578.489,204.094 578.409,204.094L570.047,204.094C569.906,204.094 570.047,204.236 570.047,204.094L570.047,187.37C570.047,187.228 569.906,187.37 570.047,187.37L578.409,187.37C578.489,187.37 578.551,187.308 578.551,187.228L578.551,170.22C578.551,170.141 578.489,170.079 578.409,170.079L570.047,170.079C569.906,170.079 570.047,170.22 570.047,170.079L570.047,153.354C570.047,153.213 569.906,153.354 570.047,153.354L578.409,153.354C578.489,153.354 578.551,153.292 578.551,153.213L578.551,136.205C578.551,136.125 578.489,136.063 578.409,136.063L570.047,136.063C569.906,136.063 570.047,136.205 570.047,136.063L570.047,119.339C570.047,119.197 569.906,119.339 570.047,119.339L578.409,119.339C578.489,119.339 578.551,119.276 578.551,119.197L578.551,102.189C578.551,102.11 578.489,102.047 578.409,102.047L570.047,102.047C569.906,102.047 570.047,102.189 570.047,102.047L570.047,85.323C570.047,85.181 569.906,85.323 570.047,85.323L578.409,85.323C578.489,85.323 578.551,85.26 578.551,85.181L578.551,68.173C578.551,68.094 578.489,68.031 578.409,68.031L570.047,68.031C569.906,68.031 570.047,68.173 570.047,68.031L570.047,36.992C570.047,36.992 569.985,36.85 569.906,36.85L550.205,36.85C550.063,36.85 550.205,36.992 550.205,36.85L550.205,28.488C550.205,28.409 550.142,28.346 550.063,28.346L533.055,28.346C532.976,28.346 532.913,28.409 532.913,28.488L532.913,36.85C532.913,36.992 533.055,36.85 532.913,36.85L516.189,36.85C516.047,36.85 516.189,36.992 516.189,36.85L516.189,28.488C516.189,28.409 516.127,28.346 516.047,28.346L499.039,28.346C498.96,28.346 498.898,28.409 498.898,28.488L498.898,36.85C498.898,36.992 499.039,36.85 498.898,36.85L482.173,36.85C482.031,36.85 482.173,36.992 482.173,36.85L482.173,28.488C482.173,28.409 482.111,28.346 482.031,28.346L465.024,28.346C464.944,28.346 464.882,28.409 464.882,28.488L464.882,36.85C464.882,36.992 465.024,36.85 464.882,36.85L448.157,36.85C448.016,36.85 448.157,36.992 448.157,36.85L448.157,28.488C448.157,28.409 448.095,28.346 448.016,28.346L431.008,28.346C430.929,28.346 430.866,28.409 430.866,28.488L430.866,36.85C430.866,36.992 431.008,36.85 430.866,36.85L414.142,36.85C414,36.85 414.142,36.992 414.142,36.85L414.142,28.488C414.142,28.409 414.079,28.346 414,28.346L396.992,28.346C396.913,28.346 396.85,28.409 396.85,28.488L396.85,36.85C396.85,36.992 396.992,36.85 396.85,36.85L380.126,36.85C379.984,36.85 380.126,36.992 380.126,36.85L380.126,28.488C380.126,28.409 380.064,28.346 379.984,28.346L362.976,28.346C362.897,28.346 362.835,28.409 362.835,28.488L362.835,36.85C362.835,36.992 362.976,36.85 362.835,36.85L346.11,36.85C345.969,36.85 346.11,36.992 346.11,36.85L346.11,28.488C346.11,28.409 346.048,28.346 345.969,28.346L328.961,28.346C328.881,28.346 328.819,28.409 328.819,28.488L328.819,36.85C328.819,36.992 328.961,36.85 328.819,36.85L312.094,36.85C311.953,36.85 312.094,36.992 312.094,36.85L312.094,28.488C312.094,28.409 312.032,28.346 311.953,28.346L294.945,28.346C294.866,28.346 294.803,28.409 294.803,28.488L294.803,36.85C294.803,36.992 294.945,36.85 294.803,36.85L278.079,36.85C277.937,36.85 278.079,36.992 278.079,36.85L278.079,28.488C278.079,28.409 278.016,28.346 277.937,28.346L260.929,28.346C260.85,28.346 260.787,28.409 260.787,28.488L260.787,36.85C260.787,36.992 260.929,36.85 260.787,36.85L244.063,36.85C243.921,36.85 244.063,36.992 244.063,36.85L244.063,28.488C244.063,28.409 244.001,28.346 243.921,28.346L226.913,28.346C226.834,28.346 226.772,28.409 226.772,28.488L226.772,36.85C226.772,36.992 226.913,36.85 226.772,36.85L210.047,36.85C209.906,36.85 210.047,36.992 210.047,36.85L210.047,28.488C210.047,28.409 209.985,28.346 209.906,28.346L192.898,28.346C192.818,28.346 192.756,28.409 192.756,28.488L192.756,36.85C192.756,36.992 192.898,36.85 192.756,36.85L176.031,36.85C175.89,36.85 176.031,36.992 176.031,36.85L176.031,28.488C176.031,28.409 175.969,28.346 175.89,28.346L158.882,28.346C158.803,28.346 158.74,28.409 158.74,28.488L158.74,36.85C158.74,36.992 158.882,36.85 158.74,36.85L142.016,36.85C141.874,36.85 142.016,36.992 142.016,36.85L142.016,28.488C142.016,28.409 141.953,28.346 141.874,28.346L124.866,28.346C124.787,28.346 124.724,28.409 124.724,28.488L124.724,36.85C124.724,36.992 124.866,36.85 124.724,36.85L108,36.85C107.858,36.85 108,36.992 108,36.85L108,28.488C108,28.409 107.938,28.346 107.858,28.346L90.85,28.346C90.771,28.346 90.709,28.409 90.709,28.488L90.709,36.85C90.709,36.992 90.85,36.85 90.709,36.85L73.984,36.85C73.843,36.85 73.984,36.992 73.984,36.85L73.984,28.488C73.984,28.409 73.922,28.346 73.843,28.346L56.835,28.346C56.755,28.346 56.693,28.409 56.693,28.488L56.693,36.85C56.693,36.992 56.835,36.85 56.693,36.85L36.992,36.85C36.913,36.85 36.85,36.913 36.85,36.992L36.85,68.031C36.85,68.173 36.992,68.031 36.85,68.031L28.488,68.031C28.409,68.031 28.346,68.094 28.346,68.173L28.346,85.181C28.346,85.26 28.409,85.323 28.488,85.323L36.85,85.323C36.992,85.323 36.85,85.181 36.85,85.323L36.85,102.047C36.85,102.189 36.992,102.047 36.85,102.047L28.488,102.047C28.409,102.047 28.346,102.11 28.346,102.189L28.346,119.197C28.346,119.276 28.409,119.339 28.488,119.339L36.85,119.339C36.992,119.339 36.85,119.197 36.85,119.339L36.85,136.063C36.85,136.205 36.992,136.063 36.85,136.063L28.488,136.063C28.409,136.063 28.346,136.125 28.346,136.205L28.346,153.213C28.346,153.292 28.409,153.354 28.488,153.354L36.85,153.354C36.992,153.354 36.85,153.213 36.85,153.354L36.85,170.079C36.85,170.22 36.992,170.079 36.85,170.079L28.488,170.079C28.409,170.079 28.346,170.141 28.346,170.22L28.346,187.228C28.346,187.308 28.409,187.37 28.488,187.37L36.85,187.37C36.992,187.37 36.85,187.228 36.85,187.37L36.85,204.094C36.85,204.236 36.992,204.094 36.85,204.094L28.488,204.094C28.409,204.094 28.346,204.157 28.346,204.236L28.346,221.244C28.346,221.323 28.409,221.386 28.488,221.386L36.85,221.386C36.992,221.386 36.85,221.244 36.85,221.386L36.85,238.11C36.85,238.252 36.992,238.11 36.85,238.11L28.488,238.11C28.409,238.11 28.346,238.173 28.346,238.252L28.346,255.26C28.346,255.339 28.409,255.402 28.488,255.402L36.85,255.402C36.992,255.402 36.85,255.26 36.85,255.402L36.85,272.126C36.85,272.268 36.992,272.126 36.85,272.126L28.488,272.126C28.409,272.126 28.346,272.188 28.346,272.268L28.346,289.276C28.346,289.355 28.409,289.417 28.488,289.417L36.85,289.417C36.992,289.417 36.85,289.276 36.85,289.417L36.85,306.142C36.85,306.283 36.992,306.142 36.85,306.142L28.488,306.142C28.409,306.142 28.346,306.204 28.346,306.283L28.346,323.291C28.346,323.371 28.409,323.433 28.488,323.433L36.85,323.433C36.992,323.433 36.85,323.291 36.85,323.433L36.85,340.157C36.85,340.299 36.992,340.157 36.85,340.157L28.488,340.157C28.409,340.157 28.346,340.22 28.346,340.299L28.346,357.307C28.346,357.386 28.409,357.449 28.488,357.449L36.85,357.449C36.992,357.449 36.85,357.307 36.85,357.449L36.85,388.488C36.85,388.568 36.913,388.63 36.992,388.63Z" style="fill:none;fill-rule:nonzero;stroke:black;stroke-width:0.5px;"/>
    </g>
    <g transform="matrix(2.55135e-16,-4.16667,4.16667,2.55135e-16,-2508.11,4013.82)">
        <path d="M591.449,803.055L622.63,803.055C622.709,803.055 622.772,802.993 622.772,802.913L622.772,794.551C622.772,794.409 622.63,794.551 622.772,794.551L639.496,794.551C639.638,794.551 639.496,794.409 639.496,794.551L639.496,802.913C639.496,802.993 639.558,803.055 639.638,803.055L656.646,803.055C656.725,803.055 656.787,802.993 656.787,802.913L656.787,794.551C656.787,794.409 656.646,794.551 656.787,794.551L673.512,794.551C673.654,794.551 673.512,794.409 673.512,794.551L673.512,802.913C673.512,802.993 673.574,803.055 673.654,803.055L690.661,803.055C690.741,803.055 690.803,802.993 690.803,802.913L690.803,794.551C690.803,794.409 690.661,794.551 690.803,794.551L707.528,794.551C707.669,794.551 707.528,794.409 707.528,794.551L707.528,802.913C707.528,802.993 707.59,803.055 707.669,803.055L724.677,803.055C724.757,803.055 724.819,802.993 724.819,802.913L724.819,794.551C724.819,794.409 724.677,794.551 724.819,794.551L741.543,794.551C741.685,794.551 741.543,794.409 741.543,794.551L741.543,802.913C741.543,802.993 741.606,803.055 741.685,803.055L758.693,803.055C758.772,803.055 758.835,802.993 758.835,802.913L758.835,794.551C758.835,794.409 758.693,794.551 758.835,794.551L775.559,794.551C775.701,794.551 775.559,794.409 775.559,794.551L775.559,802.913C775.559,802.993 775.621,803.055 775.701,803.055L792.709,803.055C792.788,803.055 792.85,802.993 792.85,802.913L792.85,794.551C792.85,794.409 792.709,794.551 792.85,794.551L809.575,794.551C809.717,794.551 809.575,794.409 809.575,794.551L809.575,802.913C809.575,802.993 809.637,803.055 809.717,803.055L826.724,803.055C826.804,803.055 826.866,802.993 826.866,802.913L826.866,794.551C826.866,794.409 826.724,794.551 826.866,794.551L843.591,794.551C843.732,794.551 843.591,794.409 843.591,794.551L843.591,802.913C843.591,802.993 843.653,803.055 843.732,803.055L860.74,803.055C860.82,803.055 860.882,802.993 860.882,802.913L860.882,794.551C860.882,794.409 860.74,794.551 860.882,794.551L877.606,794.551C877.748,794.551 877.606,794.409 877.606,794.551L877.606,802.913C877.606,802.993 877.669,803.055 877.748,803.055L894.756,803.055C894.835,803.055 894.898,802.993 894.898,802.913L894.898,794.551C894.898,794.409 894.756,794.551 894.898,794.551L911.622,794.551C911.764,794.551 911.622,794.409 911.622,794.551L911.622,802.913C911.622,802.993 911.684,803.055 911.764,803.055L942.945,803.055C943.024,803.055 943.087,802.993 943.087,802.913L943.087,780.378C943.087,780.236 942.945,780.378 943.087,780.378L951.449,780.378C951.528,780.378 951.591,780.316 951.591,780.236L951.591,763.228C951.591,763.149 951.528,763.087 951.449,763.087L943.087,763.087C942.945,763.087 943.087,763.228 943.087,763.087L943.087,746.362C943.087,746.22 942.945,746.362 943.087,746.362L951.449,746.362C951.528,746.362 951.591,746.3 951.591,746.22L951.591,729.213C951.591,729.133 951.528,729.071 951.449,729.071L943.087,729.071C942.945,729.071 943.087,729.213 943.087,729.071L943.087,712.346C943.087,712.205 942.945,712.346 943.087,712.346L951.449,712.346C951.528,712.346 951.591,712.284 951.591,712.205L951.591,695.197C951.591,695.117 951.528,695.055 951.449,695.055L943.087,695.055C942.945,695.055 943.087,695.197 943.087,695.055L943.087,678.331C943.087,678.189 942.945,678.331 943.087,678.331L951.449,678.331C951.528,678.331 951.591,678.268 951.591,678.189L951.591,661.181C951.591,661.102 951.528,661.039 951.449,661.039L943.087,661.039C942.945,661.039 943.087,661.181 943.087,661.039L943.087,644.315C943.087,644.173 942.945,644.315 943.087,644.315L951.449,644.315C951.528,644.315 951.591,644.253 951.591,644.173L951.591,627.165C951.591,627.086 951.528,627.024 951.449,627.024L943.087,627.024C942.945,627.024 943.087,627.165 943.087,627.024L943.087,604.488C943.087,604.409 943.024,604.346 942.945,604.346L591.449,604.346C591.369,604.346 591.307,604.409 591.307,604.488L591.307,627.024C591.307,627.165 591.449,627.024 591.307,627.024L582.945,627.024C582.866,627.024 582.803,627.086 582.803,627.165L582.803,644.173C582.803,644.253 582.866,644.315 582.945,644.315L591.307,644.315C591.449,644.315 591.307,644.173 591.307,644.315L591.307,661.039C591.307,661.181 591.449,661.039 591.307,661.039L582.945,661.039C582.866,661.039 582.803,661.102 582.803,661.181L582.803,678.189C582.803,678.268 582.866,678.331 582.945,678.331L591.307,678.331C591.449,678.331 591.307,678.189 591.307,678.331L591.307,695.055C591.307,695.197 591.449,695.055 591.307,695.055L582.945,695.055C582.866,695.055 582.803,695.117 582.803,695.197L582.803,712.205C582.803,712.284 582.866,712.346 582.945,712.346L591.307,712.346C591.449,712.346 591.307,712.205 591.307,712.346L591.307,729.071C591.307,729.213 591.449,729.071 591.307,729.071L582.945,729.071C582.866,729.071 582.803,729.133 582.803,729.213L582.803,746.22C582.803,746.3 582.866,746.362 582.945,746.362L591.307,746.362C591.449,746.362 591.307,746.22 591.307,746.362L591.307,763.087C591.307,763.228 591.449,763.087 591.307,763.087L582.945,763.087C582.866,763.087 582.803,763.149 582.803,763.228L582.803,780.236C582.803,780.316 582.866,780.378 582.945,780.378L591.307,780.378C591.449,780.378 591.307,780.236 591.307,780.378L591.307,802.913C591.307,802.993 591.369,803.055 591.449,803.055Z" style="fill:none;fill-rule:nonzero;stroke:black;stroke-width:0.5px;"/>
    </g>
    <g transform="matrix(2.55135e-16,-4.16667,4.16667,2.55135e-16,-1662.44,5707.43)">
        <path d="M591.449,600.094L622.63,600.094C622.709,600.094 622.772,600.032 622.772,599.953L622.772,591.591C622.772,591.449 622.63,591.591 622.772,591.591L639.496,591.591C639.638,591.591 639.496,591.449 639.496,591.591L639.496,599.953C639.496,600.032 639.558,600.094 639.638,600.094L656.646,600.094C656.725,600.094 656.787,600.032 656.787,599.953L656.787,591.591C656.787,591.449 656.646,591.591 656.787,591.591L673.512,591.591C673.654,591.591 673.512,591.449 673.512,591.591L673.512,599.953C673.512,600.032 673.574,600.094 673.654,600.094L690.661,600.094C690.741,600.094 690.803,600.032 690.803,599.953L690.803,591.591C690.803,591.449 690.661,591.591 690.803,591.591L707.528,591.591C707.669,591.591 707.528,591.449 707.528,591.591L707.528,599.953C707.528,600.032 707.59,600.094 707.669,600.094L724.677,600.094C724.757,600.094 724.819,600.032 724.819,599.953L724.819,591.591C724.819,591.449 724.677,591.591 724.819,591.591L741.543,591.591C741.685,591.591 741.543,591.449 741.543,591.591L741.543,599.953C741.543,600.032 741.606,600.094 741.685,600.094L758.693,600.094C758.772,600.094 758.835,600.032 758.835,599.953L758.835,591.591C758.835,591.449 758.693,591.591 758.835,591.591L775.559,591.591C775.701,591.591 775.559,591.449 775.559,591.591L775.559,599.953C775.559,600.032 775.621,600.094 775.701,600.094L792.709,600.094C792.788,600.094 792.85,600.032 792.85,599.953L792.85,591.591C792.85,591.449 792.709,591.591 792.85,591.591L809.575,591.591C809.717,591.591 809.575,591.449 809.575,591.591L809.575,599.953C809.575,600.032 809.637,600.094 809.717,600.094L826.724,600.094C826.804,600.094 826.866,600.032 826.866,599.953L826.866,591.591C826.866,591.449 826.724,591.591 826.866,591.591L843.591,591.591C843.732,591.591 843.591,591.449 843.591,591.591L843.591,599.953C843.591,600.032 843.653,600.094 843.732,600.094L860.74,600.094C860.82,600.094 860.882,600.032 860.882,599.953L860.882,591.591C860.882,591.449 860.74,591.591 860.882,591.591L877.606,591.591C877.748,591.591 877.606,591.449 877.606,591.591L877.606,599.953C877.606,600.032 877.669,600.094 877.748,600.094L894.756,600.094C894.835,600.094 894.898,600.032 894.898,599.953L894.898,591.591C894.898,591.449 894.756,591.591 894.898,591.591L911.622,591.591C911.764,591.591 911.622,591.449 911.622,591.591L911.622,599.953C911.622,600.032 911.684,600.094 911.764,600.094L942.945,600.094C943.024,600.094 943.087,600.032 943.087,599.953L943.087,577.417C943.087,577.276 942.945,577.417 943.087,577.417L951.449,577.417C951.528,577.417 951.591,577.355 951.591,577.276L951.591,560.268C951.591,560.188 951.528,560.126 951.449,560.126L943.087,560.126C942.945,560.126 943.087,560.268 943.087,560.126L943.087,543.402C943.087,543.26 942.945,543.402 943.087,543.402L951.449,543.402C951.528,543.402 951.591,543.339 951.591,543.26L951.591,526.252C951.591,526.173 951.528,526.11 951.449,526.11L943.087,526.11C942.945,526.11 943.087,526.252 943.087,526.11L943.087,509.386C943.087,509.244 942.945,509.386 943.087,509.386L951.449,509.386C951.528,509.386 951.591,509.323 951.591,509.244L951.591,492.236C951.591,492.157 951.528,492.094 951.449,492.094L943.087,492.094C942.945,492.094 943.087,492.236 943.087,492.094L943.087,475.37C943.087,475.228 942.945,475.37 943.087,475.37L951.449,475.37C951.528,475.37 951.591,475.308 951.591,475.228L951.591,458.22C951.591,458.141 951.528,458.079 951.449,458.079L943.087,458.079C942.945,458.079 943.087,458.22 943.087,458.079L943.087,441.354C943.087,441.213 942.945,441.354 943.087,441.354L951.449,441.354C951.528,441.354 951.591,441.292 951.591,441.213L951.591,424.205C951.591,424.125 951.528,424.063 951.449,424.063L943.087,424.063C942.945,424.063 943.087,424.205 943.087,424.063L943.087,401.528C943.087,401.448 943.024,401.386 942.945,401.386L591.449,401.386C591.369,401.386 591.307,401.448 591.307,401.528L591.307,424.063C591.307,424.205 591.449,424.063 591.307,424.063L582.945,424.063C582.866,424.063 582.803,424.125 582.803,424.205L582.803,441.213C582.803,441.292 582.866,441.354 582.945,441.354L591.307,441.354C591.449,441.354 591.307,441.213 591.307,441.354L591.307,458.079C591.307,458.22 591.449,458.079 591.307,458.079L582.945,458.079C582.866,458.079 582.803,458.141 582.803,458.22L582.803,475.228C582.803,475.308 582.866,475.37 582.945,475.37L591.307,475.37C591.449,475.37 591.307,475.228 591.307,475.37L591.307,492.094C591.307,492.236 591.449,492.094 591.307,492.094L582.945,492.094C582.866,492.094 582.803,492.157 582.803,492.236L582.803,509.244C582.803,509.323 582.866,509.386 582.945,509.386L591.307,509.386C591.449,509.386 591.307,509.244 591.307,509.386L591.307,526.11C591.307,526.252 591.449,526.11 591.307,526.11L582.945,526.11C582.866,526.11 582.803,526.173 582.803,526.252L582.803,543.26C582.803,543.339 582.866,543.402 582.945,543.402L591.307,543.402C591.449,543.402 591.307,543.26 591.307,543.402L591.307,560.126C591.307,560.268 591.449,560.126 591.307,560.126L582.945,560.126C582.866,560.126 582.803,560.188 582.803,560.268L582.803,577.276C582.803,577.355 582.866,577.417 582.945,577.417L591.307,577.417C591.449,577.417 591.307,577.276 591.307,577.417L591.307,599.953C591.307,600.032 591.369,600.094 591.449,600.094Z" style="fill:none;fill-rule:nonzero;stroke:black;stroke-width:0.5px;"/>
    </g>
    <g transform="matrix(-2.16108,-2.64656e-16,2.34807e-16,-1.91735,4292.99,4671.74)">
        <rect x="600.499" y="819.051" width="896.314" height="616.008" style="fill:none;stroke:black;stroke-width:1.02px;stroke-miterlimit:1.5;"/>
    </g>
    <g transform="matrix(1,0,0,1,-783.086,2632.29)">
        <path d="M3014.51,1017.13L3014.51,662.799L3368.85,662.799L3368.85,697.051L3118.45,697.051L3118.45,1017.13L3014.51,1017.13Z" style="fill:none;stroke:black;stroke-width:2.08px;stroke-miterlimit:1.5;"/>
    </g>
    <g transform="matrix(-1,1.22465e-16,-1.22465e-16,-1,5737.08,4312.22)">
        <path d="M3014.51,1017.13L3014.51,662.799L3368.85,662.799L3368.85,697.051L3118.45,697.051L3118.45,1017.13L3014.51,1017.13Z" style="fill:none;stroke:black;stroke-width:2.08px;stroke-miterlimit:1.5;"/>
    </g>
    <g transform="matrix(-1.83697e-16,1,-1,-1.83697e-16,2846.31,708.713)">
        <path d="M2586.37,1017.13L2586.37,662.799L2940.7,662.799L2940.7,767.917L2690.31,767.917L2690.31,1017.13L2586.37,1017.13" style="fill:none;stroke:black;stroke-width:2.08px;stroke-miterlimit:1.5;"/>
    </g>
    <g transform="matrix(6.12323e-17,-1,1,6.12323e-17,1037.26,6235.79)">
        <path d="M2586.37,1017.13L2586.37,662.799L2940.7,662.799L2940.7,767.917L2690.31,767.917L2690.31,1017.13L2586.37,1017.13" style="fill:none;stroke:black;stroke-width:2.08px;stroke-miterlimit:1.5;"/>
    </g>
    <g transform="matrix(-1.83697e-16,1,-1,-1.83697e-16,2747.03,624.214)">
        <path d="M2670.87,1100.9L3025.2,1100.9L3025.2,1206.02L2774.81,1455.23L2670.87,1455.23L2670.87,1100.9Z" style="fill:none;stroke:black;stroke-width:2.08px;stroke-miterlimit:1.5;"/>
    </g>
    <g transform="matrix(-1.83697e-16,1,-1,-1.83697e-16,2079.09,624.214)">
        <path d="M2670.87,1100.9L3025.2,1100.9L3025.2,1206.02L2774.81,1455.23L2670.87,1455.23L2670.87,1100.9Z" style="fill:none;stroke:black;stroke-width:2.08px;stroke-miterlimit:1.5;"/>
    </g>
    <g transform="matrix(6.12323e-17,-1,1,6.12323e-17,365.717,6663.93)">
        <path d="M3014.51,1017.13L3014.51,662.799L3368.85,662.799L3368.85,697.051L3118.45,1017.13L3014.51,1017.13Z" style="fill:none;stroke:black;stroke-width:2.08px;stroke-miterlimit:1.5;"/>
    </g>
    <g transform="matrix(6.12323e-17,-1,1,6.12323e-17,-302.226,6663.93)">
        <path d="M3014.51,1017.13L3014.51,662.799L3368.85,662.799L3368.85,697.051L3118.45,1017.13L3014.51,1017.13Z" style="fill:none;stroke:black;stroke-width:2.08px;stroke-miterlimit:1.5;"/>
    </g>
</svg>
