<?xml version="1.0" encoding="UTF-8" standalone="no"?>
<!DOCTYPE svg PUBLIC "-//W3C//DTD SVG 1.1//EN" "http://www.w3.org/Graphics/SVG/1.1/DTD/svg11.dtd">
<svg width="100%" height="100%" viewBox="0 0 3485 3898" version="1.1" xmlns="http://www.w3.org/2000/svg" xmlns:xlink="http://www.w3.org/1999/xlink" xml:space="preserve" xmlns:serif="http://www.serif.com/" style="fill-rule:evenodd;clip-rule:evenodd;stroke-linecap:round;stroke-linejoin:round;stroke-miterlimit:1.5;">
    <g transform="matrix(1,0,0,1,0.929134,-33.0709)">
        <g transform="matrix(-2.47075,3.0258e-16,-2.89987e-16,-2.36792,3716.02,5429.42)">
            <rect x="600.499" y="819.051" width="896.314" height="616.008" style="fill:none;stroke:black;stroke-width:0.86px;"/>
        </g>
        <g transform="matrix(-1,1.22465e-16,-1.22465e-16,-1,2035.27,3368.9)">
            <g transform="matrix(0.263429,0,0,0.267995,-198.282,-235.772)">
                <ellipse cx="842.369" cy="967.906" rx="49.319" ry="48.479" style="fill:none;stroke:black;stroke-width:7.84px;"/>
            </g>
            <g transform="matrix(0.263429,0,0,0.267995,463.135,-235.772)">
                <ellipse cx="842.369" cy="967.906" rx="49.319" ry="48.479" style="fill:none;stroke:black;stroke-width:7.84px;"/>
            </g>
            <g transform="matrix(0.263429,0,0,0.267995,-198.282,189.425)">
                <ellipse cx="842.369" cy="967.906" rx="49.319" ry="48.479" style="fill:none;stroke:black;stroke-width:7.84px;"/>
            </g>
            <g transform="matrix(0.263429,0,0,0.267995,463.135,189.425)">
                <ellipse cx="842.369" cy="967.906" rx="49.319" ry="48.479" style="fill:none;stroke:black;stroke-width:7.84px;"/>
            </g>
        </g>
        <g transform="matrix(-0.724459,8.87206e-17,-7.59553e-17,-0.620222,1377.8,3982.82)">
            <ellipse cx="666.27" cy="1147.02" rx="24.455" ry="28.565" style="fill:none;stroke:black;stroke-width:3.09px;"/>
        </g>
        <g transform="matrix(-0.724459,8.87206e-17,-7.59553e-17,-0.620222,1377.8,3705.36)">
            <ellipse cx="666.27" cy="1147.02" rx="24.455" ry="28.565" style="fill:none;stroke:black;stroke-width:3.09px;"/>
        </g>
        <g transform="matrix(-0.724459,8.87206e-17,-7.59553e-17,-0.620222,686.948,3982.82)">
            <ellipse cx="666.27" cy="1147.02" rx="24.455" ry="28.565" style="fill:none;stroke:black;stroke-width:3.09px;"/>
        </g>
        <g transform="matrix(-0.724459,8.87206e-17,-7.59553e-17,-0.620222,686.948,3705.36)">
            <ellipse cx="666.27" cy="1147.02" rx="24.455" ry="28.565" style="fill:none;stroke:black;stroke-width:3.09px;"/>
        </g>
        <g transform="matrix(-0.604567,7.4038e-17,-8.55692e-17,-0.698725,1698.45,3840.17)">
            <path d="M1143.81,944.932L1143.81,1080.14C1143.81,1136.12 1091.28,1181.57 1026.58,1181.57L870.31,1181.57C805.609,1181.57 753.08,1136.12 753.08,1080.14L753.08,944.932C753.08,888.95 805.609,843.5 870.31,843.5L1026.58,843.5C1091.28,843.5 1143.81,888.95 1143.81,944.932Z" style="fill:none;stroke:black;stroke-width:3.19px;"/>
        </g>
        <g transform="matrix(-0.724459,8.87206e-17,-7.59553e-17,-0.620222,2357.74,3277.16)">
            <ellipse cx="666.27" cy="1147.02" rx="24.455" ry="28.565" style="fill:none;stroke:black;stroke-width:3.09px;"/>
        </g>
        <g transform="matrix(-0.724459,8.87206e-17,-7.59553e-17,-0.620222,857.736,3277.16)">
            <ellipse cx="666.27" cy="1147.02" rx="24.455" ry="28.565" style="fill:none;stroke:black;stroke-width:3.09px;"/>
        </g>
        <g transform="matrix(-0.724459,8.87206e-17,-7.59553e-17,-0.620222,2357.74,2981.89)">
            <ellipse cx="666.27" cy="1147.02" rx="24.455" ry="28.565" style="fill:none;stroke:black;stroke-width:3.09px;"/>
        </g>
        <g transform="matrix(-0.724459,8.87206e-17,-7.59553e-17,-0.620222,857.736,2981.89)">
            <ellipse cx="666.27" cy="1147.02" rx="24.455" ry="28.565" style="fill:none;stroke:black;stroke-width:3.09px;"/>
        </g>
    </g>
    <g transform="matrix(1,0,0,1,0.929134,-40.0709)">
        <g transform="matrix(-2.47734,3.03386e-16,-2.91161e-16,-2.37751,3722.93,3966.73)">
            <rect x="600.499" y="819.051" width="896.314" height="616.008" style="fill:none;stroke:black;stroke-width:0.86px;"/>
        </g>
        <g transform="matrix(-0.359221,4.39919e-17,-4.47545e-17,-0.365448,2455.21,2290.47)">
            <ellipse cx="842.369" cy="967.906" rx="49.319" ry="48.479" style="fill:none;stroke:black;stroke-width:5.75px;"/>
        </g>
        <g transform="matrix(-0.359221,4.39919e-17,-4.47545e-17,-0.365448,400.088,2290.47)">
            <ellipse cx="842.369" cy="967.906" rx="49.319" ry="48.479" style="fill:none;stroke:black;stroke-width:5.75px;"/>
        </g>
        <g transform="matrix(-0.359221,4.39919e-17,-4.47545e-17,-0.365448,400.088,991.257)">
            <ellipse cx="842.369" cy="967.906" rx="49.319" ry="48.479" style="fill:none;stroke:black;stroke-width:5.75px;"/>
        </g>
        <g transform="matrix(-0.359221,4.39919e-17,-4.47545e-17,-0.365448,2455.21,991.257)">
            <ellipse cx="842.369" cy="967.906" rx="49.319" ry="48.479" style="fill:none;stroke:black;stroke-width:5.75px;"/>
        </g>
        <g transform="matrix(-1.21767,1.49121e-16,-1.15597e-16,-0.94392,3143.24,876.749)">
            <ellipse cx="905.692" cy="-463.043" rx="33.949" ry="43.795" style="fill:none;stroke:black;stroke-width:1.91px;"/>
        </g>
        <g transform="matrix(0.623608,0,2.46519e-32,1.62558,1336.36,-279.94)">
            <rect x="1075.96" y="778.014" width="106.063" height="103.174" style="fill:none;stroke:black;stroke-width:1.69px;"/>
        </g>
    </g>
    <g transform="matrix(-2.83277e-16,-1,-1,2.83277e-16,3882.76,4064.18)">
        <g transform="matrix(1,0,0,1,307.327,577.359)">
            <path d="M2586.37,1017.13L2586.37,662.799L2940.7,662.799L2940.7,767.917L2690.31,1017.13L2586.37,1017.13" style="fill:none;stroke:black;stroke-width:2.08px;"/>
        </g>
        <g transform="matrix(0.70304,3.46626e-32,4.06418e-32,0.824314,884.685,373.802)">
            <ellipse cx="2975.21" cy="1151.3" rx="16.8" ry="14.328" style="fill:none;stroke:black;stroke-width:2.72px;"/>
        </g>
    </g>
    <g transform="matrix(-6.12323e-17,1,1,6.12323e-17,1048.11,-2332.93)">
        <g transform="matrix(1,0,0,1,307.327,577.359)">
            <path d="M2586.37,1017.13L2586.37,662.799L2940.7,662.799L2940.7,767.917L2690.31,1017.13L2586.37,1017.13" style="fill:none;stroke:black;stroke-width:2.08px;"/>
        </g>
        <g transform="matrix(0.70304,2.59969e-32,3.04814e-32,0.824314,884.685,373.802)">
            <ellipse cx="2975.21" cy="1151.3" rx="16.8" ry="14.328" style="fill:none;stroke:black;stroke-width:2.72px;"/>
        </g>
    </g>
    <g transform="matrix(1,-1.22465e-16,-1.22465e-16,-1,-55.6287,2410.64)">
        <g>
            <g transform="matrix(1,0,0,1,307.327,577.359)">
                <path d="M2586.37,1017.13L2586.37,662.799L2940.7,662.799L2940.7,767.917L2690.31,1017.13L2586.37,1017.13" style="fill:none;stroke:black;stroke-width:2.08px;"/>
            </g>
            <g transform="matrix(0.70304,2.59969e-32,3.04814e-32,0.824314,884.685,373.802)">
                <ellipse cx="2975.21" cy="1151.3" rx="16.8" ry="14.328" style="fill:none;stroke:black;stroke-width:2.72px;"/>
            </g>
        </g>
    </g>
    <g transform="matrix(-1,0,0,1,6086.1,-679.391)">
        <g transform="matrix(1,0,0,1,307.327,577.359)">
            <path d="M2586.37,1017.13L2586.37,662.799L2940.7,662.799L2940.7,767.917L2690.31,1017.13L2586.37,1017.13" style="fill:none;stroke:black;stroke-width:2.08px;"/>
        </g>
        <g transform="matrix(0.70304,2.59969e-32,3.04814e-32,0.824314,884.685,373.802)">
            <ellipse cx="2975.21" cy="1151.3" rx="16.8" ry="14.328" style="fill:none;stroke:black;stroke-width:2.72px;"/>
        </g>
    </g>
    <g transform="matrix(1,0,0,1,1381.39,-813.328)">
        <g transform="matrix(1.68703,0,0,0.884915,-876.319,141.994)">
            <rect x="683.969" y="780.508" width="980.148" height="533.883" style="fill:none;stroke:black;stroke-width:1.55px;"/>
        </g>
        <g transform="matrix(0.724459,0,0,0.620222,-128.354,209.852)">
            <ellipse cx="666.27" cy="1147.02" rx="24.455" ry="28.565" style="fill:none;stroke:black;stroke-width:3.09px;"/>
        </g>
        <g transform="matrix(0.724459,0,0,0.620222,1371.65,209.852)">
            <ellipse cx="666.27" cy="1147.02" rx="24.455" ry="28.565" style="fill:none;stroke:black;stroke-width:3.09px;"/>
        </g>
        <g transform="matrix(0.724459,0,0,0.620222,-128.354,505.128)">
            <ellipse cx="666.27" cy="1147.02" rx="24.455" ry="28.565" style="fill:none;stroke:black;stroke-width:3.09px;"/>
        </g>
        <g transform="matrix(0.724459,0,0,0.620222,1371.65,505.128)">
            <ellipse cx="666.27" cy="1147.02" rx="24.455" ry="28.565" style="fill:none;stroke:black;stroke-width:3.09px;"/>
        </g>
    </g>
    <g transform="matrix(7.42832e-16,12.1314,-1.16764,7.14973e-17,3194.33,-15547.7)">
        <rect x="1389.38" y="698.96" width="177.194" height="101.153" style="fill:none;stroke:black;stroke-width:0.24px;"/>
    </g>
    <g transform="matrix(7.42832e-16,12.1314,-1.16764,7.14973e-17,3340.62,-15547.7)">
        <rect x="1389.38" y="698.96" width="177.194" height="101.153" style="fill:none;stroke:black;stroke-width:0.24px;"/>
    </g>
    <g transform="matrix(-2.2997e-15,12.1314,-3.85321,-6.89824e-16,5634.13,-15547.7)">
        <rect x="1389.38" y="698.96" width="177.194" height="101.153" style="fill:none;stroke:black;stroke-width:0.23px;"/>
    </g>
    <g transform="matrix(7.42832e-16,12.1314,-3.85321,2.35941e-16,6050.61,-15547.7)">
        <rect x="1389.38" y="698.96" width="177.194" height="101.153" style="fill:none;stroke:black;stroke-width:0.23px;"/>
    </g>
    <g transform="matrix(5.04708e-17,0.824251,-1.00445,6.1505e-17,2143.64,1774.07)">
        <rect x="2109.33" y="473.959" width="143.294" height="1458.08" style="fill:none;stroke:black;stroke-width:2.27px;"/>
    </g>
    <g transform="matrix(5.04708e-17,0.824251,-1.00445,6.1505e-17,2143.64,1942.52)">
        <rect x="2109.33" y="473.959" width="143.294" height="1458.08" style="fill:none;stroke:black;stroke-width:2.27px;"/>
    </g>
    <g transform="matrix(1.66554e-16,2.72003,-1.00445,6.1505e-17,3638.05,-2249.19)">
        <rect x="2109.33" y="473.959" width="143.294" height="1458.08" style="fill:none;stroke:black;stroke-width:1.02px;"/>
    </g>
    <g transform="matrix(1.66554e-16,2.72003,-1.00445,6.1505e-17,2106.38,-5635.41)">
        <rect x="2109.33" y="473.959" width="143.294" height="1458.08" style="fill:none;stroke:black;stroke-width:1.02px;"/>
    </g>
</svg>
